<svg width="542" height="103" viewBox="0 0 542 103" fill="none" xmlns="http://www.w3.org/2000/svg">
<g filter="url(#filter0_d_378_44)">
<path d="M19.7556 42.7278V31.2056H34.1111C35.937 31.2056 37.6056 30.8278 39.1167 30.0722C40.6278 29.3167 41.8241 28.2148 42.7056 26.7667C43.587 25.3185 44.0278 23.5556 44.0278 21.4778C44.0278 19.463 43.587 17.7315 42.7056 16.2833C41.8241 14.8352 40.6278 13.7333 39.1167 12.9778C37.6056 12.2222 35.937 11.8444 34.1111 11.8444H19.7556V0.322215H36.2833C40.5019 0.322215 44.3111 1.17222 47.7111 2.87222C51.1111 4.57222 53.787 7.02777 55.7389 10.2389C57.7537 13.387 58.7611 17.1333 58.7611 21.4778C58.7611 25.8222 57.7537 29.6 55.7389 32.8111C53.787 35.9593 51.1111 38.4148 47.7111 40.1778C44.3111 41.8778 40.5019 42.7278 36.2833 42.7278H19.7556ZM8.42222 67V0.322215H23.25V67H8.42222ZM229.407 67V0.322215H239.985L266.241 41.2167H260.857L287.019 0.322215H297.691V67H282.863V25.35L285.507 26.0111L268.413 52.6444H258.591L241.591 26.0111L244.141 25.35V67H229.407Z" fill="#4069FF"/>
<path d="M86.5676 68.0389C81.8454 68.0389 77.5639 67 73.7232 64.9222C69.9454 62.7815 66.9547 59.8852 64.751 56.2333C62.5473 52.5815 61.4454 48.4889 61.4454 43.9556C61.4454 39.4222 62.5473 35.3611 64.751 31.7722C66.9547 28.1833 69.9454 25.35 73.7232 23.2722C77.501 21.1315 81.7824 20.0611 86.5676 20.0611C91.3528 20.0611 95.6343 21.1 99.4121 23.1778C103.19 25.2556 106.181 28.1204 108.384 31.7722C110.588 35.3611 111.69 39.4222 111.69 43.9556C111.69 48.4889 110.588 52.5815 108.384 56.2333C106.181 59.8852 103.19 62.7815 99.4121 64.9222C95.6343 67 91.3528 68.0389 86.5676 68.0389ZM86.5676 54.9111C88.6454 54.9111 90.4713 54.4704 92.0454 53.5889C93.6195 52.6444 94.8158 51.3537 95.6343 49.7167C96.5158 48.0167 96.9565 46.0963 96.9565 43.9556C96.9565 41.8148 96.5158 39.9574 95.6343 38.3833C94.7528 36.7463 93.525 35.487 91.951 34.6056C90.4399 33.6611 88.6454 33.1889 86.5676 33.1889C84.5528 33.1889 82.7584 33.6611 81.1843 34.6056C79.6102 35.487 78.3824 36.7463 77.501 38.3833C76.6195 40.0204 76.1787 41.9093 76.1787 44.05C76.1787 46.1278 76.6195 48.0167 77.501 49.7167C78.3824 51.3537 79.6102 52.6444 81.1843 53.5889C82.7584 54.4704 84.5528 54.9111 86.5676 54.9111ZM149.201 67V40.8389C149.201 38.4463 148.445 36.5259 146.934 35.0778C145.486 33.5667 143.628 32.8111 141.362 32.8111C139.788 32.8111 138.402 33.1574 137.206 33.85C136.01 34.4796 135.065 35.4241 134.373 36.6833C133.68 37.8796 133.334 39.2648 133.334 40.8389L127.762 38.1C127.762 34.5111 128.549 31.363 130.123 28.6556C131.697 25.9481 133.869 23.8704 136.639 22.4222C139.473 20.9111 142.652 20.1556 146.178 20.1556C149.578 20.1556 152.569 20.9741 155.151 22.6111C157.795 24.1852 159.873 26.2944 161.384 28.9389C162.895 31.5833 163.651 34.4796 163.651 37.6278V67H149.201ZM118.884 67V21.1H133.334V67H118.884ZM192.387 87.5889C187.35 87.5889 182.911 86.7074 179.07 84.9444C175.292 83.2444 172.302 80.8204 170.098 77.6722L178.976 68.7944C180.613 70.7463 182.439 72.2259 184.453 73.2333C186.531 74.2407 189.018 74.7444 191.915 74.7444C195.503 74.7444 198.305 73.863 200.32 72.1C202.398 70.337 203.437 67.85 203.437 64.6389V52.9278L205.892 42.9167L203.72 32.9056V21.1H217.887V64.2611C217.887 68.9833 216.785 73.0759 214.581 76.5389C212.377 80.0019 209.355 82.7093 205.515 84.6611C201.674 86.613 197.298 87.5889 192.387 87.5889ZM191.726 65.5833C187.507 65.5833 183.761 64.5759 180.487 62.5611C177.213 60.5463 174.631 57.8074 172.742 54.3444C170.853 50.8815 169.909 47.0407 169.909 42.8222C169.909 38.5407 170.853 34.7 172.742 31.3C174.631 27.837 177.213 25.1296 180.487 23.1778C183.761 21.163 187.507 20.1556 191.726 20.1556C194.874 20.1556 197.676 20.7537 200.131 21.95C202.65 23.0833 204.665 24.7204 206.176 26.8611C207.75 28.9389 208.631 31.363 208.82 34.1333V51.6056C208.631 54.313 207.75 56.737 206.176 58.8778C204.665 60.9556 202.65 62.5926 200.131 63.7889C197.613 64.9852 194.811 65.5833 191.726 65.5833ZM194.465 52.7389C196.479 52.7389 198.211 52.2981 199.659 51.4167C201.17 50.5352 202.303 49.3704 203.059 47.9222C203.877 46.4111 204.287 44.7111 204.287 42.8222C204.287 40.9333 203.877 39.2333 203.059 37.7222C202.303 36.2111 201.17 35.0148 199.659 34.1333C198.211 33.2518 196.479 32.8111 194.465 32.8111C192.513 32.8111 190.781 33.2518 189.27 34.1333C187.759 35.0148 186.594 36.2111 185.776 37.7222C184.957 39.2333 184.548 40.9333 184.548 42.8222C184.548 44.5852 184.957 46.2537 185.776 47.8278C186.594 49.3389 187.727 50.5352 189.176 51.4167C190.687 52.2981 192.45 52.7389 194.465 52.7389ZM328.328 67.9444C324.11 67.9444 320.332 66.9056 316.995 64.8278C313.721 62.75 311.108 59.9167 309.156 56.3278C307.267 52.7389 306.323 48.6463 306.323 44.05C306.323 39.4537 307.267 35.3611 309.156 31.7722C311.108 28.1833 313.721 25.35 316.995 23.2722C320.332 21.1944 324.11 20.1556 328.328 20.1556C331.414 20.1556 334.184 20.7537 336.64 21.95C339.158 23.1463 341.204 24.8148 342.778 26.9556C344.353 29.0333 345.234 31.4259 345.423 34.1333V53.9667C345.234 56.6741 344.353 59.0981 342.778 61.2389C341.267 63.3167 339.253 64.9537 336.734 66.15C334.215 67.3463 331.414 67.9444 328.328 67.9444ZM331.256 54.9111C334.341 54.9111 336.828 53.9037 338.717 51.8889C340.606 49.8111 341.551 47.1981 341.551 44.05C341.551 41.9093 341.11 40.0204 340.228 38.3833C339.41 36.7463 338.214 35.487 336.64 34.6056C335.128 33.6611 333.365 33.1889 331.351 33.1889C329.336 33.1889 327.541 33.6611 325.967 34.6056C324.456 35.487 323.228 36.7463 322.284 38.3833C321.403 40.0204 320.962 41.9093 320.962 44.05C320.962 46.1278 321.403 47.9852 322.284 49.6222C323.165 51.2593 324.393 52.55 325.967 53.4944C327.541 54.4389 329.304 54.9111 331.256 54.9111ZM340.984 67V54.6278L343.156 43.4833L340.984 32.3389V21.1H355.151V67H340.984ZM382.042 68.1333C379.334 68.1333 376.658 67.787 374.014 67.0944C371.432 66.4019 369.008 65.4259 366.742 64.1667C364.538 62.8444 362.649 61.3333 361.075 59.6333L369.292 51.3222C370.803 52.9593 372.597 54.25 374.675 55.1944C376.753 56.0759 379.019 56.5167 381.475 56.5167C383.175 56.5167 384.466 56.2648 385.347 55.7611C386.292 55.2574 386.764 54.5648 386.764 53.6833C386.764 52.55 386.197 51.7 385.064 51.1333C383.993 50.5037 382.608 49.9685 380.908 49.5278C379.208 49.0241 377.414 48.4889 375.525 47.9222C373.636 47.3556 371.842 46.5685 370.142 45.5611C368.442 44.5537 367.056 43.1685 365.986 41.4056C364.916 39.5796 364.38 37.2815 364.38 34.5111C364.38 31.5518 365.136 29.0018 366.647 26.8611C368.158 24.6574 370.299 22.9259 373.069 21.6667C375.84 20.4074 379.082 19.7778 382.797 19.7778C386.701 19.7778 390.29 20.4704 393.564 21.8556C396.901 23.1778 399.608 25.1611 401.686 27.8056L393.469 36.1167C392.021 34.4167 390.384 33.2204 388.558 32.5278C386.795 31.8352 385.064 31.4889 383.364 31.4889C381.727 31.4889 380.499 31.7407 379.68 32.2444C378.862 32.6852 378.453 33.3463 378.453 34.2278C378.453 35.1722 378.988 35.9278 380.058 36.4944C381.129 37.0611 382.514 37.5648 384.214 38.0056C385.914 38.4463 387.708 38.9815 389.597 39.6111C391.486 40.2407 393.28 41.0907 394.98 42.1611C396.68 43.2315 398.066 44.6796 399.136 46.5056C400.206 48.2685 400.742 50.5981 400.742 53.4944C400.742 57.9648 399.042 61.5222 395.642 64.1667C392.304 66.8111 387.771 68.1333 382.042 68.1333ZM415.098 67V2.11666H429.548V67H415.098ZM404.709 33.3778V21.1H439.937V33.3778H404.709ZM468.048 68.0389C463.074 68.0389 458.635 67.0315 454.731 65.0167C450.891 62.9389 447.868 60.0741 445.665 56.4222C443.461 52.7704 442.359 48.6463 442.359 44.05C442.359 39.4537 443.429 35.3611 445.57 31.7722C447.774 28.1204 450.733 25.2556 454.448 23.1778C458.163 21.1 462.35 20.0611 467.009 20.0611C471.542 20.0611 475.541 21.037 479.004 22.9889C482.466 24.9407 485.174 27.6481 487.126 31.1111C489.141 34.5741 490.148 38.5407 490.148 43.0111C490.148 43.8296 490.085 44.7111 489.959 45.6556C489.896 46.537 489.739 47.5759 489.487 48.7722L449.915 48.8667V38.95L483.348 38.8556L477.115 43.0111C477.052 40.3667 476.642 38.1944 475.887 36.4944C475.131 34.7315 473.998 33.4093 472.487 32.5278C471.039 31.5833 469.244 31.1111 467.104 31.1111C464.837 31.1111 462.854 31.6463 461.154 32.7167C459.516 33.7241 458.226 35.1722 457.281 37.0611C456.4 38.95 455.959 41.2481 455.959 43.9556C455.959 46.663 456.431 48.9926 457.376 50.9444C458.383 52.8333 459.768 54.313 461.531 55.3833C463.357 56.3907 465.498 56.8944 467.954 56.8944C470.22 56.8944 472.266 56.5167 474.092 55.7611C475.918 54.9426 477.524 53.7463 478.909 52.1722L486.842 60.1056C484.576 62.75 481.837 64.7333 478.626 66.0556C475.415 67.3778 471.889 68.0389 468.048 68.0389ZM497.123 67V21.1H511.573V67H497.123ZM511.573 41.7833L505.528 37.0611C506.725 31.7093 508.739 27.5537 511.573 24.5944C514.406 21.6352 518.341 20.1556 523.378 20.1556C525.582 20.1556 527.502 20.5018 529.139 21.1944C530.839 21.8241 532.319 22.8315 533.578 24.2167L524.984 35.0778C524.354 34.3852 523.567 33.85 522.623 33.4722C521.678 33.0944 520.608 32.9056 519.412 32.9056C517.019 32.9056 515.099 33.6611 513.651 35.1722C512.265 36.6204 511.573 38.8241 511.573 41.7833Z" fill="white"/>
</g>
<defs>
<filter id="filter0_d_378_44" x="0.866685" y="0.322266" width="540.267" height="102.378" filterUnits="userSpaceOnUse" color-interpolation-filters="sRGB">
<feFlood flood-opacity="0" result="BackgroundImageFix"/>
<feColorMatrix in="SourceAlpha" type="matrix" values="0 0 0 0 0 0 0 0 0 0 0 0 0 0 0 0 0 0 127 0" result="hardAlpha"/>
<feOffset dy="7.55556"/>
<feGaussianBlur stdDeviation="3.77778"/>
<feComposite in2="hardAlpha" operator="out"/>
<feColorMatrix type="matrix" values="0 0 0 0 0 0 0 0 0 0 0 0 0 0 0 0 0 0 0.25 0"/>
<feBlend mode="normal" in2="BackgroundImageFix" result="effect1_dropShadow_378_44"/>
<feBlend mode="normal" in="SourceGraphic" in2="effect1_dropShadow_378_44" result="shape"/>
</filter>
</defs>
</svg>
